<svg id="visual" viewBox="0 0 900 600" width="900" height="600" xmlns="http://www.w3.org/2000/svg" xmlns:xlink="http://www.w3.org/1999/xlink" version="1.1"><rect x="0" y="0" width="900" height="600" fill="#FF0000"></rect><defs><linearGradient id="grad1_0" x1="33.3%" y1="0%" x2="100%" y2="100%"><stop offset="20%" stop-color="#ff0000" stop-opacity="1"></stop><stop offset="80%" stop-color="#ff0000" stop-opacity="1"></stop></linearGradient></defs><defs><linearGradient id="grad2_0" x1="0%" y1="0%" x2="66.7%" y2="100%"><stop offset="20%" stop-color="#ff0000" stop-opacity="1"></stop><stop offset="80%" stop-color="#ff0000" stop-opacity="1"></stop></linearGradient></defs><g transform="translate(900, 0)"><path d="M0 486.7C-67.1 483.3 -134.1 479.8 -186.3 449.7C-238.4 419.6 -275.7 363 -314.7 314.7C-353.6 266.3 -394.2 226.3 -423.1 175.3C-452.1 124.2 -469.4 62.1 -486.7 0L0 0Z" fill="#FFFF00"></path></g><g transform="translate(0, 600)"><path d="M0 -486.7C65.1 -482.6 130.3 -478.4 186.3 -449.7C242.3 -421 289.1 -367.7 313.2 -313.2C337.4 -258.8 338.9 -203.2 364 -150.8C389.1 -98.4 437.9 -49.2 486.7 0L0 0Z" fill="#FFFF00"></path></g></svg>